<?xml version="1.0" encoding="utf-8"?>
<!-- Generator: Adobe Illustrator 25.2.1, SVG Export Plug-In . SVG Version: 6.00 Build 0)  -->
<svg version="1.1" id="Layer_1" xmlns="http://www.w3.org/2000/svg" xmlns:xlink="http://www.w3.org/1999/xlink" x="0px" y="0px"
	 viewBox="0 0 64 64" style="enable-background:new 0 0 64 64;" xml:space="preserve">
<style type="text/css">
	.st0{fill:#AEE2FA;}
	.st1{fill:#94CD83;}
	.st2{fill:#FFFFFF;}
	.st3{fill:#69AC5C;}
	.st4{fill:#2F3536;}
	.st5{fill:#66695F;}
	.st6{fill:#937B6C;}
	.st7{fill:#B29784;}
	.st8{fill:#C1A490;}
	.st9{fill:#A08673;}
	.st10{clip-path:url(#rect2816_2_);}
	.st11{fill:url(#path2819_1_);}
</style>
<g>
	<g>
		<g>
			<rect x="8.65" y="1" class="st0" width="37.06" height="23.63"/>
			<path class="st1" d="M32.76,22c-9.68-4.73-14.04-8.34-14.04-8.34c-1.52-1.31-2.75-2.45-4.72-2.58c-1.99-0.14-3.88,0.84-5.35,2.08
				v11.48h30.89C37.75,24.12,35.48,23.33,32.76,22z"/>
			<path class="st2" d="M45.71,1.34c-0.47-0.1-0.96-0.18-1.48-0.24c-0.02-0.03-0.05-0.07-0.08-0.1H24.54
				c-0.29,0.4-0.45,0.85-0.45,1.32c0,1.59,1.82,2.9,4.22,3.18c-0.41,0.37-0.63,0.77-0.63,1.2c0,1.57,3.02,2.84,6.75,2.84
				c1.48,0,2.84-0.2,3.95-0.54c0.83,0.69,2.41,1.16,4.22,1.16c1.18,0,2.27-0.2,3.11-0.53V1.34z"/>
			<path class="st2" d="M23.29,6.51c0-0.51-0.99-0.92-2.22-0.92c-1.23,0-2.22,0.41-2.22,0.92s0.99,0.92,2.22,0.92
				c0.29,0,0.56-0.02,0.81-0.06c0.06,0.4,0.67,0.72,1.41,0.72c0.78,0,1.42-0.35,1.42-0.79C24.71,6.86,24.07,6.51,23.29,6.51z"/>
			<path class="st2" d="M11.58,1.53c0,1.1,2.3,2,5.15,2s5.15-0.89,5.15-2c0-0.18-0.06-0.36-0.18-0.53h-9.93
				C11.65,1.17,11.58,1.34,11.58,1.53z"/>
			<path class="st3" d="M43.58,22.7c-9.68-4.73-14.04-8.34-14.04-8.34c-1.52-1.31-2.75-2.45-4.72-2.58
				c-2.1-0.15-4.09,0.95-5.59,2.28c1.4,1.06,5.75,4.14,13.53,7.94c2.71,1.33,4.99,2.12,6.78,2.63h6.17v-0.96
				C45.04,23.38,44.33,23.06,43.58,22.7z"/>
		</g>
	</g>
	<g>
		<path id="path4552" class="st4" d="M1,31.31c7.98-4.82,18.92-9.31,23.31-4.82l16.36,23.13c-8.03-0.27-19.16,5.89-33.12,13.08
			l-0.5-0.87L1,31.31L1,31.31z"/>
		<path id="path4550" class="st4" d="M21.06,23.37c2.43-6.58,9.39-5.14,20.71-3.15l21.22,23.51l-0.23,0.64
			c-14.26-4.32-17.49,0.86-22.13,5.3L21.06,23.37L21.06,23.37z"/>
		<path id="path4548" class="st4" d="M20.98,23.27c2.43-6.58,9.39-5.14,20.71-3.15l21.23,23.65L20.98,23.27L20.98,23.27z"/>
		<path id="path4546" class="st5" d="M20.98,23.27c2.43-6.58,9.39-5.14,20.71-3.15L63,43.77c-14.27-4.32-17.81,1.35-22.45,5.79
			L20.98,23.27L20.98,23.27z"/>
		<path id="path4544" class="st6" d="M20.98,23.27c2.43-6.58,9.39-5.14,20.71-3.15l19.66,22.74c-14.62-5.8-16.57,2.09-20.98,6.32
			L20.98,23.27L20.98,23.27z"/>
		<path id="path4542" class="st7" d="M20.98,23.27c2.43-6.58,9.39-5.14,20.71-3.15L62,42.51C46.8,36,44.78,44.95,40.38,49.18
			L20.98,23.27L20.98,23.27z"/>
		<path id="path4540" class="st7" d="M20.98,23.27c2.43-6.58,9.39-5.14,20.71-3.15l20.43,21.97c-15.56-7-17.34,2.87-21.74,7.09
			L20.98,23.27L20.98,23.27z"/>
		<path id="path4538" class="st8" d="M20.98,23.27c2.43-6.58,9.39-5.14,20.71-3.15l20.72,21.61c-15.56-7-18.39,2.65-22.04,7.44
			L20.98,23.27L20.98,23.27z"/>
		<path id="path4534" class="st5" d="M1,31.31c7.98-4.82,18.92-9.31,23.31-4.82l16.27,23.03c-8.26-0.34-19.6,5.29-33.56,12.48
			L1,31.31L1,31.31z"/>
		<path id="path4528" class="st6" d="M1.94,31.59c7.98-4.82,14.63-9.17,19.02-4.68l19.5,22.11c-8.26-0.34-16.9,3.53-30.86,10.72
			L1.94,31.59L1.94,31.59z"/>
		<path id="path4526" class="st9" d="M1.94,31.59c7.98-4.82,14.63-9.17,19.02-4.68l19.5,22.11c-8.14-0.98-11.49,0.57-31.74,10.72
			L1.94,31.59L1.94,31.59z"/>
		<path id="path4524" class="st7" d="M1.94,31.59c7.98-4.82,14.63-9.17,19.02-4.68l19.5,22.11c-8.5-1.82-11.78-0.63-31.74,10.72
			L1.94,31.59L1.94,31.59z"/>
		<path id="path4168" class="st8" d="M1.94,31.59c7.98-4.82,14.63-9.17,19.02-4.68l19.5,22.11c-8.32-2.88-12.14-1.97-31.74,10.72
			L1.94,31.59L1.94,31.59z"/>
		<g>
			<defs>
				<path id="rect2816" d="M1.06,29.02c7.98-5.38,15.75-10.54,20.14-5.53l19.04,25.39c-8.38-4.47-12.61-3.08-32.22,11.07L1.06,29.02
					L1.06,29.02z"/>
			</defs>
			
				<linearGradient id="rect2816_1_" gradientUnits="userSpaceOnUse" x1="95.7319" y1="-358.2721" x2="112.8047" y2="-348.7114" gradientTransform="matrix(1 0 0 -1 -98.084 -306.731)">
				<stop  offset="0" style="stop-color:#A88876"/>
				<stop  offset="1" style="stop-color:#D0B49F"/>
			</linearGradient>
			<use xlink:href="#rect2816"  style="overflow:visible;fill:url(#rect2816_1_);"/>
			<clipPath id="rect2816_2_">
				<use xlink:href="#rect2816"  style="overflow:visible;"/>
			</clipPath>
			<g class="st10">
				<g>
					<polygon class="st0" points="5.95,32.34 18.61,26.85 22.82,33.57 9.18,40.78 					"/>
					<path class="st1" d="M18,34.97c-4.28,0.16-6.47-0.26-6.47-0.26c-0.77-0.17-1.4-0.32-2.18-0.01c-0.79,0.32-1.41,1.01-1.83,1.73
						l1.67,4.35l11.62-6.14C20.1,34.78,19.18,34.93,18,34.97z"/>
					<path class="st2" d="M18.66,26.93c-0.16,0.03-0.32,0.08-0.49,0.13c-0.01-0.01-0.03-0.01-0.04-0.02l-6.36,2.76
						c-0.04,0.16-0.04,0.31,0.03,0.45c0.23,0.47,1.05,0.58,1.93,0.29c-0.08,0.17-0.1,0.33-0.04,0.45c0.24,0.47,1.48,0.37,2.73-0.21
						c0.49-0.23,0.9-0.49,1.2-0.76c0.38,0.07,0.97-0.03,1.54-0.29c0.37-0.17,0.67-0.39,0.88-0.6L18.66,26.93z"/>
					<path class="st2" d="M12.12,31.64c-0.07-0.16-0.49-0.12-0.93,0.08c-0.44,0.2-0.75,0.49-0.68,0.65c0.07,0.16,0.5,0.12,0.94-0.08
						c0.1-0.05,0.2-0.1,0.28-0.15c0.08,0.11,0.35,0.11,0.61-0.01c0.28-0.13,0.45-0.34,0.39-0.47C12.68,31.52,12.4,31.51,12.12,31.64
						z"/>
					<path class="st2" d="M7.14,32.01c0.14,0.35,1.13,0.24,2.19-0.23c1.04-0.46,1.74-1.09,1.58-1.42c-0.03-0.05-0.07-0.1-0.14-0.13
						l-3.63,1.57C7.12,31.89,7.12,31.96,7.14,32.01z"/>
					<path class="st3" d="M21.75,33.32c-4.09,0.14-6.21-0.27-6.21-0.27c-0.75-0.16-1.36-0.31-2.08-0.02
						c-0.78,0.31-1.34,1.01-1.7,1.73c0.69,0.1,2.79,0.35,6.22,0.22c1.18-0.04,2.1-0.19,2.81-0.34l2.02-1.07l-0.19-0.3
						C22.36,33.29,22.06,33.31,21.75,33.32z"/>
				</g>
			</g>
		</g>
		
			<linearGradient id="path2819_1_" gradientUnits="userSpaceOnUse" x1="131.6454" y1="-357.4249" x2="142.2948" y2="-348.5926" gradientTransform="matrix(1 0 0 -1 -105.386 -313.331)">
			<stop  offset="0" style="stop-color:#A88876"/>
			<stop  offset="1" style="stop-color:#CEB9AB"/>
		</linearGradient>
		<path id="path2819" class="st11" d="M20.64,22.76c2.43-6.58,15.85-5.63,20.71-3.15l21.19,21.4c-16.61-9.68-22.3,7.87-22.3,7.87
			L20.64,22.76L20.64,22.76z"/>
	</g>
</g>
</svg>
